<svg width="32" height="33" viewBox="0 0 32 33" fill="none" xmlns="http://www.w3.org/2000/svg">
<path d="M29.3337 9.16662C29.3337 6.95748 27.5428 5.16663 25.3337 5.16663H6.66699C4.45785 5.16663 2.66699 6.95749 2.66699 9.16663V23.8333C2.66699 26.0424 4.45785 27.8333 6.66699 27.8333H25.3337C27.5428 27.8333 29.3337 26.0424 29.3337 23.8333V9.16662ZM23.2937 13.2866L19.1203 16.62C18.2403 17.3266 17.1203 17.6733 16.0003 17.6733C14.8803 17.6733 13.747 17.3266 12.8803 16.62L8.70699 13.2866C8.28033 12.94 8.21366 12.3 8.54699 11.8733C8.89366 11.4466 9.52033 11.3666 9.94699 11.7133L14.1203 15.0466C15.1337 15.86 16.8537 15.86 17.867 15.0466L22.0403 11.7133C22.467 11.3666 23.107 11.4333 23.4403 11.8733C23.787 12.3 23.7203 12.94 23.2937 13.2866Z" fill="#1233EA"/>
</svg>
