<svg width="24" height="24" viewBox="0 0 24 24" fill="none" xmlns="http://www.w3.org/2000/svg">
<path d="M11.7563 14.91C11.3463 14.91 11.0063 14.57 11.0063 14.16V9.16C11.0063 8.75 11.3463 8.41 11.7563 8.41C12.1663 8.41 12.5063 8.75 12.5063 9.16V14.16C12.5063 14.57 12.1663 14.91 11.7563 14.91Z" fill="#DF3A44"/>
<path d="M11.7563 18.16C11.6963 18.16 11.6263 18.15 11.5563 18.14C11.4963 18.13 11.4363 18.11 11.3763 18.08C11.3163 18.06 11.2563 18.03 11.1963 17.99C11.1463 17.95 11.0963 17.91 11.0463 17.87C10.8663 17.68 10.7563 17.42 10.7563 17.16C10.7563 16.9 10.8663 16.64 11.0463 16.45C11.0963 16.41 11.1463 16.37 11.1963 16.33C11.2563 16.29 11.3163 16.26 11.3763 16.24C11.4363 16.21 11.4963 16.19 11.5563 16.18C11.6863 16.15 11.8263 16.15 11.9463 16.18C12.0163 16.19 12.0763 16.21 12.1363 16.24C12.1963 16.26 12.2563 16.29 12.3163 16.33C12.3663 16.37 12.4163 16.41 12.4663 16.45C12.6463 16.64 12.7563 16.9 12.7563 17.16C12.7563 17.42 12.6463 17.68 12.4663 17.87C12.4163 17.91 12.3663 17.95 12.3163 17.99C12.2563 18.03 12.1963 18.06 12.1363 18.08C12.0763 18.11 12.0163 18.13 11.9463 18.14C11.8863 18.15 11.8163 18.16 11.7563 18.16Z" fill="#DF3A44"/>
<path d="M17.8163 22.32H5.69632C3.74632 22.32 2.25632 21.61 1.49632 20.33C0.746324 19.05 0.846323 17.4 1.79632 15.69L7.85632 4.79C8.85632 2.99 10.2363 2 11.7563 2C13.2763 2 14.6563 2.99 15.6563 4.79L21.7163 15.7C22.6663 17.41 22.7763 19.05 22.0163 20.34C21.2563 21.61 19.7663 22.32 17.8163 22.32ZM11.7563 3.5C10.8163 3.5 9.89632 4.22 9.16632 5.52L3.11632 16.43C2.43632 17.65 2.32632 18.77 2.79632 19.58C3.26632 20.39 4.30632 20.83 5.70632 20.83H17.8263C19.2263 20.83 20.2563 20.39 20.7363 19.58C21.2163 18.77 21.0963 17.66 20.4163 16.43L14.3463 5.52C13.6163 4.22 12.6963 3.5 11.7563 3.5Z" fill="#DF3A44"/>
</svg>
